<?xml version="1.0" encoding="utf-8"?>
<!-- Generator: Adobe Illustrator 21.0.0, SVG Export Plug-In . SVG Version: 6.00 Build 0)  -->
<svg version="1.1" id="圖層_1" xmlns="http://www.w3.org/2000/svg" xmlns:xlink="http://www.w3.org/1999/xlink" x="0px" y="0px"
	 viewBox="0 0 185 50" style="enable-background:new 0 0 185 50;" xml:space="preserve">
<style type="text/css">
	.st0{fill:#FF6666;}
</style>
<title>omocha_logo</title>
<path class="st0" d="M61,35.4c0-0.6,0.4-1.1,1-1.1c0,0,0.1,0,0.1,0h8.7c0.6,0,1.1,0.5,1.1,1.1c0,0,0,0.1,0,0.1v9.2
	c0,0.6-0.5,1.1-1.1,1.1c0,0-0.1,0-0.1,0h-8.7c-0.6,0-1.1-0.4-1.1-1c0,0,0-0.1,0-0.1L61,35.4z M70.6,36.1c0-0.2-0.2-0.4-0.4-0.4h-7.4
	c-0.2,0-0.4,0.3-0.4,0.4v2.6c0,0.2,0.2,0.4,0.4,0.4h7.3c0.2,0,0.4-0.2,0.4-0.4L70.6,36.1z M62.5,43.9c0,0.2,0.2,0.4,0.4,0.4h7.3
	c0.2,0,0.4-0.3,0.4-0.4v-3c0-0.2-0.2-0.4-0.4-0.4h-7.4c-0.2,0-0.4,0.2-0.4,0.4L62.5,43.9z"/>
<path class="st0" d="M87.4,43.5c-0.6,0-1.1-0.3-1.5-0.7L82.1,38c-0.2-0.1-0.3,0-0.3,0.1v4.4c0,0.2,0.2,0.4,0.4,0.4h1.6
	c0.3,0,0.6,0.2,0.6,0.5c0,0,0,0.1,0,0.1c0,0.3-0.2,0.6-0.5,0.6c0,0-0.1,0-0.1,0h-1.5c-0.2,0-0.4,0.3-0.4,0.5v1.7
	c0,0.3-0.2,0.6-0.6,0.6c0,0-0.1,0-0.1,0c-0.3,0-0.6-0.2-0.6-0.5c0,0,0-0.1,0-0.1v-1.7c0-0.2-0.2-0.5-0.4-0.5h-1.6
	c-0.3,0-0.6-0.2-0.6-0.6c0,0,0-0.1,0-0.1c0-0.3,0.2-0.6,0.5-0.6c0,0,0.1,0,0.1,0h1.6c0.2,0,0.4-0.2,0.4-0.4v-4.3
	c0-0.2-0.2-0.2-0.4-0.1l-3.5,4.6c-0.3,0.5-0.8,0.7-1.4,0.7c-0.2,0-0.4-0.1-0.4-0.3c0-0.1,0-0.2,0.1-0.3l4.6-6.1
	c0.1-0.2,0-0.4-0.2-0.4h-4.2c-0.4,0-0.6-0.2-0.6-0.7c0-0.3,0.2-0.6,0.6-0.6c0,0,0.1,0,0.1,0h4.9c0.2,0,0.4-0.2,0.4-0.4v-0.9
	c0-0.3,0.2-0.6,0.5-0.6c0,0,0.1,0,0.1,0c0.3,0,0.6,0.2,0.6,0.5c0,0,0,0.1,0,0.1v0.9c0,0.2,0.2,0.4,0.4,0.4h4.9
	c0.3,0,0.6,0.2,0.7,0.6c0,0,0,0,0,0.1c0,0.5-0.3,0.7-0.7,0.7H83c-0.2,0-0.3,0.2-0.2,0.4l4.8,6.1c0.1,0.1,0.1,0.4,0,0.5
	C87.5,43.5,87.4,43.5,87.4,43.5z"/>
<path class="st0" d="M92.2,41.8c0.1,0,0.3-0.1,0.3-0.3l0-0.3c0.1-0.4,0.4-0.6,0.8-0.6c0.3,0,0.5,0.2,0.5,0.5c0,0,0,0.1,0,0.1
	l-0.3,1.6l-1.1,2.8c-0.1,0.4-0.5,0.7-1,0.6c-0.3,0-0.5-0.2-0.5-0.5c0-0.1,0-0.1,0-0.2l1-2.3c0-0.1,0-0.2-0.1-0.2c0,0-0.1,0-0.1,0
	l-1.1,0.2c-0.4,0.1-0.7-0.2-0.8-0.6c0-0.1,0-0.3,0-0.4l1.2-3.1c0.1-0.2,0-0.4-0.1-0.5l-0.6-0.5c-0.6-0.4-0.8-1.2-0.5-1.9l1.1-2.8
	c0.2-0.4,0.5-0.6,1-0.6c0.3,0,0.5,0.2,0.5,0.4c0,0.1,0,0.1,0,0.2L91.2,37c-0.1,0.2,0,0.4,0.1,0.5l0.3,0.2c0.1,0.1,0.2,0.1,0.2,0
	c0,0,0,0,0-0.1l0.1-0.2c0.2-0.4,0.5-0.6,1-0.6c0.3,0,0.5,0.2,0.5,0.5c0,0.1,0,0.1,0,0.2l-1.7,4.1c0,0.1,0,0.2,0.1,0.2
	c0,0,0.1,0,0.1,0L92.2,41.8z M96.8,42.9c-0.1-0.3,0.1-0.6,0.5-0.7c0,0,0.1,0,0.1,0c0.4,0,0.8,0.3,0.8,0.7l0.6,2.7
	c0.1,0.3-0.1,0.6-0.5,0.7c0,0-0.1,0-0.1,0c-0.4,0-0.8-0.3-0.8-0.7v-0.1c0-0.1-0.2-0.2-0.3-0.2c0,0,0,0,0,0l-1.4,0.4
	c-0.5,0.1-1-0.2-1.1-0.7c0-0.1,0-0.1,0-0.2V34.6c0-0.7,0.5-1.2,1.2-1.2l0,0h1.7c0.7,0,1.2,0.5,1.2,1.2c0,0,0,0,0,0v4.7
	c0,0.7-0.5,1.2-1.2,1.2c0,0,0,0,0,0h-1.2c-0.2,0-0.3,0.1-0.3,0.3V44c0,0.1,0.1,0.2,0.2,0.2c0,0,0.1,0,0.1,0l0.7-0.2
	c0.2,0,0.3-0.2,0.2-0.4L96.8,42.9z M97.3,34.9c0-0.2-0.1-0.3-0.3-0.3l0,0h-0.9c-0.2,0-0.3,0.1-0.3,0.3c0,0,0,0,0,0v1
	c0,0.2,0.2,0.3,0.3,0.3c0,0,0,0,0,0h1c0.2,0,0.3-0.1,0.3-0.3L97.3,34.9z M95.7,38.9c0,0.2,0.2,0.3,0.3,0.3c0,0,0,0,0,0h1
	c0.2,0,0.3-0.1,0.3-0.3v-1.1c0-0.2-0.1-0.3-0.3-0.3c0,0,0,0,0,0h-0.9c-0.2,0-0.3,0.1-0.3,0.3L95.7,38.9z M102.5,37.2
	c0,0.2,0,0.4,0.1,0.6l0.4,0.6c0.4,0.7,0.6,1.5,0.6,2.3v2.1c0,0.7-0.5,1.2-1.2,1.2h-0.6c-0.3,0-0.6-0.3-0.6-0.6
	c0-0.3,0.3-0.6,0.6-0.6c0,0,0,0,0,0h0.3c0.1,0,0.2-0.1,0.2-0.2v-2.3c0-0.2-0.1-0.4-0.2-0.6l-0.4-0.8c-0.4-0.7-0.5-1.5-0.3-2.2
	l0.4-1.8c0-0.1,0-0.3-0.2-0.3c0,0,0,0-0.1,0H101c-0.2,0-0.3,0.1-0.3,0.3v11.6c0,0.3-0.3,0.6-0.6,0.6c-0.3,0-0.6-0.3-0.6-0.6v-12
	c0-0.7,0.5-1.2,1.2-1.2c0,0,0,0,0,0h1.6c0.5,0,1,0.4,1,0.9c0,0.1,0,0.1,0,0.2L102.5,37.2z"/>
<path class="st0" d="M113.3,44.4c0,0.2,0.1,0.3,0.3,0.3c0,0,0,0,0,0h4.9c0.4,0,0.7,0.3,0.7,0.7c0,0.4-0.3,0.7-0.7,0.7l0,0h-12
	c-0.4,0-0.7-0.3-0.7-0.7c0-0.4,0.3-0.7,0.7-0.7l0,0h4.9c0.2,0,0.3-0.2,0.3-0.3c0,0,0,0,0,0v-4.6c0-0.2-0.1-0.3-0.3-0.3c0,0,0,0,0,0
	h-3.6c-0.4,0-0.7-0.3-0.7-0.7s0.3-0.7,0.7-0.7h3.6c0.2,0,0.3-0.1,0.3-0.3v-3.6c0-0.4,0.3-0.7,0.7-0.7c0.4,0,0.7,0.3,0.7,0.7
	c0,0,0,0,0,0v3.6c0,0.2,0.1,0.3,0.3,0.3l0,0h3.5c0.4,0,0.7,0.3,0.7,0.7s-0.3,0.7-0.7,0.7h-3.6c-0.2,0-0.3,0.1-0.3,0.3c0,0,0,0,0,0
	L113.3,44.4z"/>
<path class="st0" d="M121.3,35c-0.4,0-0.7-0.3-0.7-0.7c0-0.4,0.3-0.7,0.7-0.7c0,0,0,0,0,0h3.3c0.4,0,0.7,0.3,0.7,0.7
	S125,35,124.6,35c0,0,0,0,0,0H124c-0.2,0-0.3,0.1-0.3,0.3v2c0,0.2,0.1,0.3,0.3,0.3h0.4c0.4,0,0.7,0.4,0.6,0.8c0,0.3-0.3,0.6-0.6,0.6
	h-0.4c-0.2,0-0.3,0.1-0.3,0.3v2.8c0,0.1,0.1,0.2,0.2,0.2c0,0,0,0,0.1,0l0.6-0.2c0.3-0.1,0.6,0.1,0.7,0.3c0,0.1,0,0.1,0,0.2
	c0,0.5-0.3,0.9-0.7,1l-3.2,1.2c-0.3,0.1-0.6-0.1-0.7-0.3c0-0.1,0-0.1,0-0.2c0-0.5,0.3-0.9,0.7-1l0.6-0.2c0.2-0.1,0.3-0.2,0.3-0.4
	v-3.3c0-0.2-0.1-0.3-0.3-0.3h-0.4c-0.4,0-0.7-0.2-0.8-0.6c0-0.4,0.2-0.7,0.6-0.8c0.1,0,0.1,0,0.2,0h0.4c0.2,0,0.3-0.1,0.3-0.3v-2
	c0-0.2-0.1-0.3-0.3-0.3c0,0,0,0,0,0L121.3,35z M132.5,44.9c0,0.2,0.1,0.3,0.3,0.3c0,0,0,0,0,0h1.5c0.4,0,0.7,0.3,0.7,0.7
	c0,0,0,0,0,0c0,0.4-0.3,0.7-0.7,0.7h-2c-0.7,0-1.2-0.5-1.2-1.2c0,0,0,0,0,0v-6c0-0.2-0.1-0.3-0.3-0.3c0,0,0,0,0,0H130
	c-0.2,0-0.3,0.1-0.4,0.3l-1,6.5c-0.1,0.4-0.4,0.7-0.8,0.7c-0.3,0-0.6-0.3-0.6-0.6c0,0,0-0.1,0-0.1l1-6.5c0-0.2-0.1-0.3-0.3-0.3
	c0,0,0,0,0,0h-0.8c-0.4,0-0.7-0.3-0.7-0.7c0-0.4,0.3-0.7,0.7-0.7c0,0,0,0,0,0h7c0.4,0,0.7,0.3,0.7,0.7c0,0,0,0,0,0
	c0,0.4-0.3,0.7-0.7,0.7c0,0,0,0,0,0h-1.3c-0.2,0-0.3,0.1-0.3,0.3c0,0,0,0,0,0L132.5,44.9z M133.5,33.6c0.4,0,0.7,0.3,0.7,0.7
	s-0.3,0.7-0.7,0.7h-5.6c-0.4,0-0.7-0.3-0.7-0.7s0.3-0.7,0.7-0.7H133.5z"/>
<path class="st0" d="M137.9,43.9c0-0.4,0.3-0.7,0.7-0.7c0,0,0,0,0,0h11.6c0.4,0,0.7,0.3,0.7,0.7s-0.3,0.7-0.7,0.7h-11.6
	C138.1,44.5,137.9,44.2,137.9,43.9z M139.4,47.3c-0.3,0-0.5-0.2-0.5-0.5c0-0.1,0-0.2,0.1-0.3l0.2-0.2c0.3-0.5,0.9-0.8,1.5-0.8
	c0.3,0,0.5,0.2,0.5,0.5c0,0.1,0,0.2-0.1,0.3l-0.2,0.2C140.6,47,140.1,47.3,139.4,47.3z M147.6,33.4c0.7,0,1.2,0.5,1.2,1.2v6.3
	c0,0.7-0.5,1.2-1.2,1.2H141c-0.7,0-1.2-0.5-1.2-1.2v-6.3c0-0.7,0.5-1.2,1.2-1.2H147.6z M147.5,35c0-0.2-0.1-0.3-0.3-0.3l0,0h-5.7
	c-0.2,0-0.3,0.1-0.3,0.3c0,0,0,0,0,0v0.5c0,0.2,0.2,0.3,0.3,0.3c0,0,0,0,0,0h5.7c0.2,0,0.3-0.1,0.3-0.3V35z M141.5,37.2
	c-0.2,0-0.3,0.1-0.3,0.3v0v0.4c0,0.2,0.1,0.3,0.3,0.3l0,0h5.7c0.2,0,0.3-0.2,0.3-0.3c0,0,0,0,0,0v-0.4c0-0.2-0.1-0.3-0.3-0.3
	c0,0,0,0,0,0H141.5z M141.1,40.4c0,0.2,0.2,0.3,0.3,0.3c0,0,0,0,0,0h5.7c0.2,0,0.3-0.1,0.3-0.3V40c0-0.2-0.1-0.3-0.3-0.3l0,0h-5.7
	c-0.2,0-0.3,0.1-0.3,0.3c0,0,0,0,0,0V40.4z M147.5,46.2c-0.2-0.2-0.1-0.6,0.1-0.7c0.1-0.1,0.2-0.1,0.3-0.1c0.6,0,1.2,0.3,1.6,0.8
	l0.2,0.2c0.2,0.2,0.1,0.6-0.1,0.7c-0.1,0.1-0.2,0.1-0.3,0.1c-0.6,0-1.2-0.3-1.6-0.8L147.5,46.2z"/>
<path class="st0" d="M165.9,42.6c0.3,0,0.6,0.3,0.6,0.6c0,0.3-0.3,0.6-0.6,0.6c0,0,0,0,0,0h-2.3c-0.2,0-0.3,0.1-0.3,0.3v0v2.4
	c0,0.3-0.3,0.6-0.6,0.6c-0.3,0-0.6-0.3-0.6-0.6v-2.4c0-0.2-0.1-0.3-0.3-0.3c0,0,0,0,0,0h-8.3c-0.3,0-0.6-0.3-0.6-0.6
	c0-0.3,0.3-0.6,0.6-0.6h8.4c0.2,0,0.3-0.2,0.3-0.3c0,0,0,0,0,0v-0.6c0-0.2-0.1-0.3-0.3-0.3l0,0h-6.5c-0.7,0-1.2-0.5-1.2-1.2v-3
	c0-0.7,0.5-1.2,1.2-1.2c0,0,0,0,0,0h3.3c0.2,0,0.3-0.1,0.3-0.3v0v-0.3c0-0.2-0.2-0.3-0.3-0.3c0,0,0,0,0,0h-5.1
	c-0.3,0-0.6-0.3-0.6-0.6c0-0.3,0.3-0.6,0.6-0.6h5.2c0.1,0,0.2-0.1,0.2-0.2c0,0,0,0,0,0v-0.1c0-0.3,0.3-0.6,0.6-0.6
	c0.3,0,0.6,0.3,0.6,0.6v0.1c0,0.1,0.1,0.2,0.2,0.2l0,0h5.2c0.3,0,0.6,0.3,0.6,0.6c0,0.3-0.3,0.6-0.6,0.6h-5.1
	c-0.2,0-0.3,0.1-0.3,0.3c0,0,0,0,0,0v0.3c0,0.2,0.1,0.3,0.3,0.3l0,0h3.3c0.7,0,1.2,0.5,1.2,1.2c0,0,0,0,0,0v3c0,0.7-0.5,1.2-1.2,1.2
	h-0.3c-0.2,0-0.3,0.1-0.3,0.3c0,0,0,0,0,0v0.6c0,0.2,0.1,0.3,0.3,0.3l0,0L165.9,42.6z M159,37.5c0-0.2-0.1-0.3-0.3-0.3c0,0,0,0,0,0
	h-3c-0.2,0-0.3,0.1-0.3,0.3c0,0,0,0,0,0v0.2c0,0.2,0.1,0.3,0.3,0.3l0,0h3c0.2,0,0.3-0.1,0.3-0.3c0,0,0,0,0,0V37.5z M155.7,39.3
	c-0.2,0-0.3,0.1-0.3,0.3c0,0,0,0,0,0v0.2c0,0.2,0.1,0.3,0.3,0.3c0,0,0,0,0,0h3c0.2,0,0.3-0.1,0.3-0.3c0,0,0,0,0,0v-0.2
	c0-0.2-0.1-0.3-0.3-0.3l0,0H155.7z M156.7,45c-0.1-0.2-0.1-0.4,0-0.6c0.1-0.1,0.2-0.1,0.3-0.1c0.5,0,1,0.2,1.4,0.6l0.5,0.5
	c0.1,0.2,0.1,0.4,0,0.5c-0.1,0.1-0.2,0.1-0.3,0.1c-0.5,0-1.1-0.2-1.4-0.6L156.7,45z M163.9,37.5c0-0.2-0.1-0.3-0.3-0.3l0,0h-3
	c-0.2,0-0.3,0.1-0.3,0.3c0,0,0,0,0,0v0.2c0,0.2,0.2,0.3,0.3,0.3c0,0,0,0,0,0h3c0.2,0,0.3-0.1,0.3-0.3V37.5z M160.3,39.8
	c0,0.2,0.1,0.3,0.3,0.3c0,0,0,0,0,0h3c0.2,0,0.3-0.1,0.3-0.3v0v-0.2c0-0.2-0.1-0.3-0.3-0.3c0,0,0,0,0,0h-3c-0.2,0-0.3,0.1-0.3,0.3v0
	V39.8z"/>
<path class="st0" d="M169.3,40.5c0-0.7,0.5-1.2,1.2-1.2c0,0,0,0,0,0h10.5c0.7,0,1.2,0.5,1.2,1.2c0,0,0,0,0,0v0.8
	c0,0.4-0.3,0.7-0.7,0.7s-0.7-0.3-0.7-0.7V41c0-0.1-0.1-0.3-0.3-0.3c0,0,0,0,0,0h-9.5c-0.1,0-0.3,0.1-0.3,0.3c0,0,0,0,0,0v0.3
	c0,0.4-0.3,0.7-0.7,0.7s-0.7-0.3-0.7-0.7L169.3,40.5z M174.7,37c0.2,0,0.3-0.1,0.3-0.3c0,0,0,0,0,0V36c0-0.2-0.1-0.3-0.3-0.3
	c0,0,0,0,0,0h-3.6c-0.4,0-0.7-0.3-0.7-0.7c0,0,0,0,0,0c0-0.4,0.3-0.7,0.7-0.7h3.7c0.1,0,0.3-0.1,0.3-0.2c0,0,0,0,0,0v-0.2
	c0-0.4,0.3-0.7,0.7-0.7c0.4,0,0.7,0.3,0.7,0.7v0.2c0,0.1,0.1,0.3,0.2,0.3c0,0,0,0,0,0h3.7c0.4,0,0.7,0.3,0.7,0.7
	c0,0.4-0.3,0.7-0.7,0.7c0,0,0,0,0,0h-3.6c-0.2,0-0.3,0.1-0.3,0.3c0,0,0,0,0,0v0.7c0,0.2,0.1,0.3,0.3,0.3c0,0,0,0,0,0h3
	c0.4,0,0.7,0.3,0.7,0.7s-0.3,0.7-0.7,0.7h-8.1c-0.4,0-0.7-0.3-0.7-0.7s0.3-0.7,0.7-0.7L174.7,37z M172.5,44.2
	c0.1-0.2,0.2-0.4,0.2-0.6l0.3-1.4c0.1-0.4,0.5-0.7,0.9-0.7c0.3,0,0.6,0.2,0.6,0.6c0,0.1,0,0.1,0,0.2l-0.2,1
	c-0.2,0.8-0.5,1.5-0.9,2.2l-0.4,0.8c-0.2,0.4-0.7,0.7-1.2,0.7c-0.3,0-0.5-0.2-0.5-0.5c0-0.1,0-0.2,0.1-0.2L172.5,44.2z M176.9,41.5
	c0.4,0,0.7,0.3,0.7,0.7v2.9c0,0.2,0.1,0.3,0.3,0.3c0,0,0,0,0,0h3.3c0.4,0,0.7,0.3,0.7,0.7c0,0.4-0.3,0.7-0.7,0.7h-3.8
	c-0.7,0-1.2-0.5-1.2-1.2c0,0,0,0,0,0v-3.4C176.2,41.9,176.5,41.6,176.9,41.5L176.9,41.5z"/>
<path class="st0" d="M69.9,14l8.2,13.9c0.3,0.6,0,1.3-0.6,1.6c-0.2,0.1-0.4,0.1-0.6,0.1c-1.2,0-2.3-0.6-2.9-1.6l-7.4-12.4
	c-0.2-0.3-0.5-0.5-0.9-0.5h-0.3c-0.3,0-0.6,0.2-0.6,0.5v12.4c-0.1,1-0.9,1.7-1.9,1.6c-0.9,0.1-1.8-0.6-1.8-1.6c0,0,0,0,0,0V5.6
	C61.2,4.7,62,4,62.9,4c0,0,0,0,0,0c1-0.1,1.8,0.7,1.9,1.6v6c0.1,0.3,0.3,0.5,0.6,0.4h0.3c0.4,0,0.8-0.1,1-0.4l5.6-6
	c0.9-1,2.3-1.6,3.7-1.6c0.5-0.1,1.1,0.3,1.1,0.8c0,0.3,0,0.6-0.2,0.8L70.1,13C69.8,13.3,69.7,13.7,69.9,14z"/>
<path class="st0" d="M94.8,27.7l-8,1.8c-1.5,0.4-3.1-0.4-3.6-1.9l-3.9-13c-0.3-1.4,0.5-2.7,1.9-3.1c0.1,0,0.2,0,0.3-0.1l8.9-2
	c1.6,0.1,3.2,0.5,3.6,1.9l3.7,12.2c0.4,1.8-0.7,3.7-2.5,4.1C95,27.6,94.9,27.7,94.8,27.7z M82.8,14.7L86.2,26
	c0.1,0.3,0.4,0.4,0.7,0.4l7-1.6c0.3,0,0.5-0.3,0.5-0.6c0,0,0,0,0-0.1l-3.4-11.3c-0.1-0.3-0.4-0.5-0.7-0.4l-7,1.6
	C82.9,14.1,82.7,14.4,82.8,14.7L82.8,14.7z"/>
<path class="st0" d="M118,5.6l-7.6,8.9l0,0V28c-0.1,0.9-0.9,1.6-1.8,1.6c0,0,0,0,0,0c-1,0.1-1.8-0.6-1.9-1.6c0,0,0,0,0,0V14.9
	c0-0.4-0.1-0.7-0.4-1l-7.2-8.3c-0.3-0.4-0.3-1.1,0.2-1.4C99.5,4,99.8,4,100.1,4c1.3,0,2.6,0.5,3.5,1.5l4.8,5.5
	c0.2,0.2,0.5,0.2,0.6,0c0,0,0,0,0,0l4.7-5.5c0.9-1,2.2-1.5,3.5-1.5c0.5-0.1,1,0.3,1.1,0.9C118.2,5.1,118.2,5.4,118,5.6z"/>
<path class="st0" d="M127.8,29.4l-8-1.9c-1.4-0.2-2.4-1.5-2.1-2.9c0-0.1,0-0.2,0.1-0.3l4.1-13c0.6-1.5,2.1-2.2,3.6-1.8l8.9,2.1
	c1.3,0.8,2.5,1.8,2,3.1L132.6,27C131.9,28.9,129.8,30,127.8,29.4z M124.8,13l-3.5,11.3c-0.1,0.3,0.1,0.5,0.4,0.6c0,0,0,0,0,0
	l6.9,1.6c0.3,0.1,0.6-0.1,0.7-0.3l3.5-11.3c0.1-0.3-0.1-0.6-0.4-0.6c0,0,0,0,0,0l-6.9-1.6C125.2,12.6,124.9,12.7,124.8,13L124.8,13z
	"/>
<path class="st0" d="M156.3,5.9l1.8,1.7c1.3,1.1,2,2.7,2,4.4v11.5v0.1l-4.1,4c-1.4,1.3-3.1,1.9-5,1.9h-7.7c-1.5,0.1-2.9-1-3-2.6
	c0,0,0,0,0,0V6.6c0.1-1.5,1.4-2.7,2.9-2.6c0,0,0,0,0.1,0h8.1C153.2,4,155,4.6,156.3,5.9z M156.4,21.8V11.3c0-0.4-0.2-0.7-0.4-1
	l-3-2.9c-0.3-0.2-0.7-0.4-1.1-0.4h-7.2c-0.3,0-0.5,0.2-0.6,0.5V26c0,0.3,0.3,0.5,0.6,0.5c0,0,0,0,0,0h6.7c0.4,0,0.8-0.2,1.1-0.4
	l3.4-3.4C156.2,22.5,156.4,22.2,156.4,21.8L156.4,21.8z"/>
<path class="st0" d="M175.5,29.5h-8.2c-1.5,0.1-2.9-1-3-2.6c0,0,0,0,0,0V13.5c0.1-1.5,1.4-2.7,2.9-2.6c0,0,0,0,0.1,0h9.2
	c1.5,0.5,2.9,1.1,2.9,2.6v12.7C179.3,28.1,177.5,29.7,175.5,29.5z M167.6,14.4V26c0,0.3,0.3,0.5,0.6,0.5h7.2c0.3,0,0.6-0.2,0.6-0.5
	V14.4c0-0.3-0.3-0.5-0.6-0.5h-7.2C167.9,13.8,167.7,14.1,167.6,14.4L167.6,14.4z"/>
<path class="st0" d="M15.9,22.6l-3.6-0.4c-1-0.1-1.7-1-1.6-2l0.8-7.4c0.1-1,1-1.7,2-1.6c0,0,0,0,0,0l4.2,0.4c0.9,0.4,1.7,1,1.6,2
	l-0.7,6.8C18.3,21.8,17.2,22.7,15.9,22.6z M13.4,13.6l-0.6,6.1c0,0.2,0.1,0.4,0.3,0.4l3,0.3c0.2,0,0.4-0.1,0.4-0.3c0,0,0,0,0,0
	l0.6-6.1c0-0.2-0.1-0.4-0.3-0.4l-3-0.3C13.5,13.3,13.4,13.5,13.4,13.6L13.4,13.6z"/>
<path class="st0" d="M31.4,23.2c0,0.6-0.4,1-1,1c-0.1,0-0.1,0-0.2,0c-0.6-0.1-1-0.6-1-1.2l0.8-7.5c0-0.2-0.1-0.4-0.3-0.4l-1.9-0.2
	c-0.2,0-0.4,0.1-0.4,0.3c0,0,0,0,0,0l-0.8,7.2c-0.1,0.6-0.6,1-1.1,0.9c-0.6-0.1-1-0.6-0.9-1.1l0.8-7.2c0-0.2-0.1-0.4-0.3-0.4
	l-1.8-0.2c-0.2,0-0.4,0.1-0.4,0.3L22,22.2c0.1,0.6-0.4,1.1-0.9,1.1C20.5,23.4,20,23,20,22.4c0-0.1,0-0.3,0-0.4l0.9-8.2
	c0.1-1,1-1.7,2-1.6c0,0,0,0,0,0l7.2,0.8c1.3,0.1,2.3,1.3,2.2,2.6c0,0,0,0,0,0L31.4,23.2z"/>
<path class="st0" d="M38.5,25l-3.6-0.4c-1-0.1-1.7-1-1.6-2l0.8-7.4c0.1-1,1-1.7,2-1.6c0,0,0,0,0,0l4.2,0.4c0.9,0.5,1.7,1,1.6,2
	l-0.7,6.8C41,24.1,39.8,25.1,38.5,25C38.5,25,38.5,25,38.5,25z M36,16l-0.6,6.1c0,0.2,0.1,0.4,0.3,0.4l3,0.3c0.2,0,0.4-0.1,0.4-0.3
	c0,0,0,0,0,0l0.6-6.1c0-0.2-0.1-0.4-0.3-0.4l-3-0.3C36.2,15.7,36,15.8,36,16z"/>
<path class="st0" d="M9.4,31.9l0.7-6.8c0.1-1,1-1.7,2-1.6l6,0.6c0.5,0.1,0.9,0.5,0.9,1.1c0,0,0,0,0,0c0,0.6-0.5,1-1.1,0.9
	c0,0,0,0,0,0l-5.2-0.5c-0.2,0-0.4,0.1-0.4,0.3c0,0,0,0,0,0l-0.7,6.3c0,0.2,0.1,0.4,0.3,0.4c0,0,0,0,0,0l5.3,0.5
	c0.6,0.1,1,0.6,0.9,1.1s-0.6,1-1.1,0.9l-5.5-0.6C10.2,34.4,9.3,33.2,9.4,31.9z"/>
<path class="st0" d="M28.5,35.4c0,0.6-0.5,1-1.1,1c0,0,0,0-0.1,0c-0.6-0.1-1.1-0.6-1-1.2l0.4-3.9c0-0.2-0.1-0.4-0.3-0.4c0,0,0,0,0,0
	l-3.9-0.4c-0.2,0-0.4,0.1-0.4,0.3c0,0,0,0,0,0l-0.4,3.9c-0.1,0.6-0.6,1.1-1.2,1c-0.6-0.1-1.1-0.6-1-1.2l1-9c0.1-0.6,0.6-1.1,1.3-1
	c0.6,0.1,1.1,0.6,1,1.3l0,0L22.4,28c0,0.2,0.1,0.4,0.3,0.4c0,0,0,0,0,0l4,0.4c1.3,0.1,2.3,1.3,2.2,2.6c0,0,0,0,0,0L28.5,35.4z"/>
<path class="st0" d="M39.8,35.1c-0.1,1.3-1.3,2.3-2.6,2.2l-4.9-0.5c-1-0.1-1.7-1-1.7-2l0.4-3.5c0.1-1,1-1.7,2-1.6l4.6,0.5
	c0.2,0,0.4-0.1,0.4-0.3c0,0,0,0,0,0l0.1-1.1c0-0.2-0.1-0.4-0.3-0.4c0,0,0,0,0,0l-5.2-0.5c-0.6,0-1-0.5-0.9-1.1c0,0,0-0.1,0-0.1
	c0.1-0.6,0.6-1,1.2-1c0,0,0.1,0,0.1,0l5.9,0.6c1,0.1,1.7,1,1.6,2L39.8,35.1z M33.2,32l-0.3,2.4c0,0.2,0.1,0.4,0.3,0.4c0,0,0,0,0,0
	l3.9,0.4c0.2,0,0.4-0.1,0.4-0.3c0,0,0,0,0,0l0.3-2.4c0-0.2-0.1-0.4-0.3-0.4c0,0,0,0,0,0l-3.9-0.4C33.4,31.6,33.2,31.8,33.2,32
	C33.2,32,33.2,32,33.2,32z"/>
<path class="st0" d="M31.2,39.7c0.6,0.1,1,0.6,0.9,1.1s-0.6,1-1.1,0.9L1.8,38.6c-0.6-0.1-1-0.6-0.9-1.1c0.1-0.6,0.6-1,1.1-0.9
	L31.2,39.7z"/>
<path class="st0" d="M23.1,45.9c-12.4-1.3-21.3-12.4-20-24.7s12.4-21.3,24.7-20s21.3,12.4,20,24.7c0,0,0,0,0,0
	C46.6,38.2,35.5,47.2,23.1,45.9z M27.6,3.3C16.5,2.1,6.5,10.2,5.3,21.4s6.9,21.2,18.1,22.3c11.2,1.2,21.1-6.9,22.3-18.1
	C46.9,14.5,38.8,4.5,27.6,3.3z"/>
<path class="st0" d="M48.2,10.1c0.6,0.1,1,0.6,0.9,1.1s-0.6,1-1.1,0.9l-28.4-3C19,9,18.6,8.5,18.6,8s0.6-1,1.1-0.9L48.2,10.1z"/>
<path class="st0" d="M53.8,12.4c0.6,0.1,1,0.6,0.9,1.1s-0.6,1-1.1,0.9l0,0l-1-0.1c-0.6-0.1-1-0.6-0.9-1.1s0.6-1,1.1-0.9L53.8,12.4z"
	/>
</svg>
